<svg width="32" height="32" viewBox="0 0 32 32" fill="none" xmlns="http://www.w3.org/2000/svg">
<path fill-rule="evenodd" clip-rule="evenodd" d="M4.92306 2.52631H0.820496V7.57893H31.1795V2.52631H26.2564V5.05262H22.9743V2.52631H17.2308V5.05262H13.9487V2.52631H8.20511V5.05262H4.92306V2.52631ZM4.92306 12.6316H9.84614V16.8421H4.92306V12.6316ZM22.1538 12.6316H27.0769V16.8421H22.1538V12.6316ZM21.3333 17.6842H16.4102V21.8947H21.3333V17.6842ZM16.4102 22.7368H21.3333V26.9473H16.4102V22.7368Z" fill="black" fill-opacity="0.08"/>
<path fill-rule="evenodd" clip-rule="evenodd" d="M22.9744 0H26.2564V1.68421H32V7.57895V8.42105V27.5428L27.6571 32H0V8.42105V7.57895V1.68421H4.92308V0H8.20513V1.68421H13.9487V0H17.2308V1.68421H22.9744V0ZM14.7692 1.68421V2.52632V4.21053H16.4103V2.52632V1.68421V0.842105H14.7692V1.68421ZM13.9487 2.52632H8.20513V5.05263H4.92308V2.52632H0.820513V7.57895H31.1795V2.52632H26.2564V5.05263H22.9744V2.52632H17.2308V5.05263H13.9487V2.52632ZM7.38462 2.52632V1.68421V0.842105H5.74359V1.68421V2.52632V4.21053H7.38462V2.52632ZM23.7949 4.21053V2.52632V1.68421V0.842105H25.4359V1.68421V2.52632V4.21053H23.7949ZM0.820513 8.42105V31.1579H27.3173L31.1795 27.194V8.42105H0.820513ZM27.8974 11.7895H22.1538H21.3333H16.4103H15.5897H10.6667H9.84615H4.10256V16.8421V17.6842V21.8947V22.7368V27.7895H9.84615H10.6667H15.5897H16.4103H21.3333H22.1538H27.8974V22.7368V21.8947V17.6842V16.8421V11.7895ZM10.6667 16.8421V12.6316H15.5897V16.8421H10.6667ZM4.92308 21.8947V17.6842H9.84615V21.8947H4.92308ZM4.92308 12.6316H9.84615V16.8421H4.92308V12.6316ZM16.4103 12.6316V16.8421H21.3333V12.6316H16.4103ZM15.5897 17.6842H10.6667V21.8947H15.5897V17.6842ZM22.1538 16.8421V12.6316H27.0769V16.8421H22.1538ZM16.4103 17.6842H21.3333V21.8947H16.4103V17.6842ZM27.0769 17.6842H22.1538V21.8947H27.0769V17.6842ZM4.92308 26.9474V22.7368H9.84615V26.9474H4.92308ZM15.5897 22.7368H10.6667V26.9474H15.5897V22.7368ZM16.4103 22.7368H21.3333V26.9474H16.4103V22.7368ZM27.0769 22.7368H22.1538V26.9474H27.0769V22.7368Z" fill="black" fill-opacity="0.32"/>
</svg>
