<svg width="39" height="32" viewBox="0 0 39 32" fill="none" xmlns="http://www.w3.org/2000/svg">
<path fill-rule="evenodd" clip-rule="evenodd" d="M22.9528 0.888885H15.4473L12.2182 4.17777V11.8222L13.091 12.7111V8H20.0728V4.17777L23.3019 8H25.3091V12.7111L26.1819 11.8222V4.17777L22.9528 0.888885ZM8.98913 4.44444H4.97459L2.61823 6.84444V10.6667H6.37095L10.7346 6.22222L8.98913 4.44444ZM29.411 4.44444H33.4255L34.2982 5.33333L30.8073 8.88889H27.0546V6.84444L29.411 4.44444ZM29.8473 20.4444H32.9891L31.4182 22.0444L29.8473 20.4444ZM6.98186 22.6667L6.19645 24L6.98186 25.3333L7.76732 24L6.98186 22.6667ZM6.28364 20.4444H7.68004L6.98186 21.1556L6.28364 20.4444ZM16.5819 22.2222H21.8182V24.2667L20.3346 25.7778H18.0655L16.5819 24.2667V22.2222Z" fill="#4488FF" fill-opacity="0.08"/>
<path fill-rule="evenodd" clip-rule="evenodd" d="M23.308 0H15.092L11.3455 3.81591V5.5936V5.59369L9.34438 3.55556H4.61925L1.74545 6.48258V10.6667H0V13.073L1.12834 14.2222H1.74545V15.7396L4.61925 18.6667H9.34438L12.2182 15.7396V13.073L13.0909 13.9619V16.6285L15.9647 19.5556H22.4353L25.3091 16.6285V13.9619L26.1818 13.073V15.7396L29.0556 18.6667H33.7807L36.6545 15.7396V14.2222H37.2717L38.4 13.073V10.6667H36.6545V6.48258L35.5262 5.33333L34.9091 4.70471V4.7048L33.7807 3.55556H29.0556L27.0545 5.59369V3.81591L23.308 0ZM27.0545 6.85076V8.88889H30.8011L32.9829 6.66667H32.9828L33.6 6.03804V6.03813L34.292 5.33333L33.4193 4.44444H29.4171L27.0545 6.85076ZM27.0545 9.77778V12.1841V15.3715L29.4171 17.7778H33.4193L35.7818 15.3715V14.2222V13.3333V11.5556V10.6667V9.51733V9.51742L33.6 7.2952L31.1626 9.77778H27.0545ZM26.1818 6.48258V4.18409L22.9465 0.888889H15.4535L12.2182 4.18409V6.48258V11.8159L13.0909 12.7048V8H20.0727V4.13191L23.328 8H25.3091V12.7048L26.1818 11.8159V9.77778V8.88889V6.48258ZM11.3455 6.85076L9.78074 8.44444L11.3455 10.0381V6.85076ZM11.3455 11.2951V11.2952L9.16364 9.07298L6.72621 11.5556H2.61818V13.3333V14.2222V15.3715L4.98075 17.7778H8.98289L11.3455 15.3715V12.1841V11.2951ZM24.4364 13.3333V8.88889H22.9265L20.9455 6.53476V8.88889H13.9636V13.3333V14.8508V16.2604L16.3262 18.6667H22.0738L24.4364 16.2604V14.8508V13.3333ZM14.2193 21.3333H15.7091H16.5818H21.8182H22.6909H24.1807L26.1818 23.3715V22.4826L29.0556 19.5556H33.7807L36.6545 22.4826V27.5556H27.0545V32H11.3455V27.5556H1.74545V22.4826L4.61925 19.5556H9.34438L12.2182 22.4826V23.3715L14.2193 21.3333ZM12.2182 24.6285V27.5556V31.1111H26.1818V27.5556V24.6285L23.8193 22.2222H22.6909V24.6285L20.6898 26.6667H17.7102L15.7091 24.6285V22.2222H14.5807L12.2182 24.6285ZM11.3455 26.6667V24.2604V22.8508L8.98289 20.4444H8.90793L7.5312 21.8467L8.7998 24L7.22889 26.6667H11.3455ZM27.0545 26.6667H30.9818V22.8508L29.0182 20.8508L27.0545 22.8508V24.2604V26.6667ZM16.5818 22.2222H21.8182V24.2604L20.3284 25.7778H18.0717L16.5818 24.2604V22.2222ZM1.74545 13.3333V11.5556H0.872727V12.7048L1.48984 13.3333H1.74545ZM8.98289 4.44444L10.7283 6.22222L9.16364 7.81591V7.81582L8.54644 8.44444H8.54653L6.3647 10.6667H2.61818V6.85076L4.98075 4.44444H8.98289ZM4.98075 20.4444L2.61818 22.8508V26.6667H6.73472L5.16381 24L6.43233 21.8467L5.05561 20.4444H4.98075ZM6.98178 21.1492L6.28984 20.4444H7.67372L6.98178 21.1492ZM6.18158 24L6.98179 22.6416L7.78202 24L6.98179 25.3584L6.18158 24ZM36.6545 11.5556V13.3333H36.9102L37.5273 12.7048V11.5556H36.6545ZM35.7818 6.85076V8.26036L34.2171 6.66667L34.9091 5.96187L35.7818 6.85076ZM31.8545 26.6667H35.7818V22.8508L33.8182 20.8508L31.8545 22.8507V26.6667ZM31.4182 22.038L29.8535 20.4444H32.9828L31.4182 22.038Z" fill="#4488FF"/>
</svg>
