<?xml version="1.0" encoding="UTF-8"?>
<svg xmlns="http://www.w3.org/2000/svg" xmlns:xlink="http://www.w3.org/1999/xlink" width="0" height="0">
    <symbol id="math" viewBox="0 0 48 48"><path d="M42 3H25v20h20V6a3 3 0 0 0-3-3Zm-2.793 12.793a1 1 0 1 1-1.414 1.414L35 14.414l-2.793 2.793a1 1 0 0 1-1.414-1.414L33.586 13l-2.793-2.793a1 1 0 0 1 1.414-1.414L35 11.586l2.793-2.793a1 1 0 0 1 1.414 1.414L36.414 13l2.793 2.793ZM6 3a3 3 0 0 0-3 3v17h20V3H6Zm11 11H9a1 1 0 0 1 0-2h8a1 1 0 0 1 0 2ZM25 25v20h17a3 3 0 0 0 3-3V25H25Zm14 13h-8a1 1 0 0 1 0-2h8a1 1 0 0 1 0 2Zm0-4h-8a1 1 0 0 1 0-2h8a1 1 0 0 1 0 2ZM3 25v17a3 3 0 0 0 3 3h17V25H3Zm14 11h-3v3a1 1 0 0 1-2 0v-3H9a1 1 0 0 1 0-2h3v-3a1 1 0 0 1 2 0v3h3a1 1 0 0 1 0 2Z"/></symbol>
    <symbol id="butterfly" viewBox="0 0 48 48"><path d="M46 8c-8.858 0-16.38 5.794-19 13.788v-3.814c1.207-.913 2-2.347 2-3.974 0-1.6-.77-3.011-1.943-3.927.46-3.336 1.439-5.315 3.623-7.34a1 1 0 1 0-1.36-1.466c-2.36 2.187-3.576 4.476-4.148 7.886A4.951 4.951 0 0 0 24 9a4.95 4.95 0 0 0-1.172.153c-.572-3.41-1.788-5.7-4.148-7.886a1 1 0 1 0-1.36 1.467c2.184 2.024 3.163 4.003 3.623 7.339C19.769 10.989 19 12.4 19 14c0 1.627.793 3.06 2 3.974v3.814C18.38 13.794 10.858 8 2 8a1 1 0 0 0-1 1v12c0 5.093 3.484 9.376 8.19 10.623C7.257 33.084 6 35.395 6 38c0 4.411 3.589 8 8 8a8.004 8.004 0 0 0 7-4.136V45a3 3 0 1 0 6 0v-3.136A8.004 8.004 0 0 0 34 46c4.411 0 8-3.589 8-8 0-2.605-1.257-4.916-3.19-6.377C43.516 30.376 47 26.093 47 21V9a1 1 0 0 0-1-1ZM9.5 26a3.5 3.5 0 1 1 0-7 3.5 3.5 0 0 1 0 7ZM14 40a2 2 0 1 1 0-4 2 2 0 0 1 0 4Zm20 0a2 2 0 1 1 0-4 2 2 0 0 1 0 4Zm4.5-14a3.5 3.5 0 1 1 0-7 3.5 3.5 0 0 1 0 7Z"/></symbol>
</svg>
